<?xml version="1.0" encoding="utf-8"?>
<!-- Generator: Adobe Illustrator 21.0.0, SVG Export Plug-In . SVG Version: 6.00 Build 0)  -->
<svg version="1.1" id="Layer_1" xmlns="http://www.w3.org/2000/svg" xmlns:xlink="http://www.w3.org/1999/xlink" x="0px" y="0px"
	 viewBox="0 0 120 140" style="enable-background:new 0 0 120 140;" xml:space="preserve">
<style type="text/css">
	.st0{fill:url(#SVGID_1_);}
	.st1{fill:url(#SVGID_2_);}
	.st2{opacity:0.4;fill:url(#SVGID_3_);enable-background:new    ;}
	.st3{fill:url(#SVGID_4_);}
	.st4{fill:#fff;}
</style>
<linearGradient id="SVGID_1_" gradientUnits="userSpaceOnUse" x1="97.5" y1="41.276" x2="97.5" y2="131.276" gradientTransform="matrix(1 0 0 -1 0 141.276)">
	<stop  offset="0" style="stop-color:#13235B"/>
	<stop  offset="1" style="stop-color:#622280"/>
</linearGradient>
<polygon class="st0" points="110,85 85,100 85,10 110,25 "/>
<linearGradient id="SVGID_2_" gradientUnits="userSpaceOnUse" x1="10" y1="63.776" x2="110" y2="63.776" gradientTransform="matrix(1 0 0 -1 0 141.276)">
	<stop  offset="0" style="stop-color:#BD0926"/>
	<stop  offset="1" style="stop-color:#E30E6F"/>
</linearGradient>
<polygon class="st1" points="60,55 10,85 35,100 60,85 85,100 110,85 "/>
<linearGradient id="SVGID_3_" gradientUnits="userSpaceOnUse" x1="60" y1="63.776" x2="10" y2="63.776" gradientTransform="matrix(1 0 0 -1 0 141.276)">
	<stop  offset="0" style="stop-color:#1A171B;stop-opacity:0"/>
	<stop  offset="1" style="stop-color:#1A171B"/>
</linearGradient>
<polygon class="st2" points="35,100 60,55 10,85 "/>
<linearGradient id="SVGID_4_" gradientUnits="userSpaceOnUse" x1="22.5" y1="41.276" x2="22.5" y2="131.276" gradientTransform="matrix(1 0 0 -1 0 141.276)">
	<stop  offset="0" style="stop-color:#13235B"/>
	<stop  offset="1" style="stop-color:#622280"/>
</linearGradient>
<polygon class="st3" points="35,100 10,85 10,25 35,10 "/>
<g>
	<path class="st4" d="M18.6,120.9l1-5.5c0-0.2,0.1-0.3,0.2-0.3c0.1-0.1,0.2-0.1,0.3-0.1h2.1c0.1,0,0.2,0,0.3,0.1
		c0.1,0.1,0.1,0.2,0.1,0.3v0.1l-2.1,10.3c0,0.2-0.1,0.3-0.3,0.4c-0.2,0.1-0.3,0.2-0.6,0.2h-1.3c-0.2,0-0.4-0.1-0.5-0.2
		s-0.2-0.3-0.3-0.4l-1.2-3.7l-1.2,3.7c-0.1,0.2-0.1,0.3-0.3,0.4c-0.1,0.1-0.3,0.2-0.5,0.2H13c-0.2,0-0.4-0.1-0.6-0.2
		c-0.2-0.1-0.2-0.3-0.3-0.4L10,115.5c0-0.1,0-0.1,0-0.1c0-0.1,0-0.2,0.1-0.3c0.1-0.1,0.2-0.1,0.3-0.1h2.1c0.1,0,0.2,0,0.3,0.1
		s0.2,0.2,0.2,0.3l1,5.5l1-2.9c0-0.1,0.1-0.2,0.1-0.3c0.1-0.1,0.2-0.2,0.4-0.2H17c0.2,0,0.3,0.1,0.4,0.2s0.1,0.2,0.1,0.3L18.6,120.9
		z"/>
	<path class="st4" d="M32.3,123.8c0.1,0,0.2,0,0.3,0.1s0.1,0.2,0.1,0.3v1.7c0,0.1,0,0.2-0.1,0.3c-0.1,0.1-0.2,0.1-0.3,0.1h-7.7
		c-0.1,0-0.2,0-0.3-0.1c-0.1-0.1-0.1-0.2-0.1-0.3v-10.5c0-0.1,0-0.2,0.1-0.3c0.1-0.1,0.2-0.1,0.3-0.1h7.6c0.1,0,0.2,0,0.3,0.1
		s0.1,0.2,0.1,0.3v1.7c0,0.1,0,0.2-0.1,0.3c-0.1,0.1-0.2,0.1-0.3,0.1h-5v1.8h4.6c0.1,0,0.2,0,0.3,0.1c0.1,0.1,0.1,0.2,0.1,0.3v1.7
		c0,0.1,0,0.2-0.1,0.3c-0.1,0.1-0.2,0.1-0.3,0.1h-4.6v1.8h5.1V123.8z"/>
	<path class="st4" d="M35.1,126.4c-0.1,0-0.2,0-0.3-0.1s-0.1-0.2-0.1-0.3v-10.5c0-0.1,0-0.2,0.1-0.3c0.1-0.1,0.2-0.1,0.3-0.1h5.2
		c0.7,0,1.3,0.1,1.8,0.3c0.5,0.2,0.9,0.5,1.2,0.8s0.5,0.7,0.6,1.1s0.2,0.8,0.2,1.2c0,0.3,0,0.6-0.1,0.8c-0.1,0.2-0.2,0.4-0.3,0.6
		s-0.2,0.3-0.3,0.4s-0.2,0.2-0.3,0.2c0.4,0.3,0.7,0.6,0.9,1s0.3,0.8,0.3,1.4c0,0.4-0.1,0.9-0.2,1.3c-0.1,0.4-0.3,0.8-0.6,1.1
		c-0.3,0.3-0.7,0.6-1.2,0.8c-0.5,0.2-1.1,0.3-1.8,0.3C40.5,126.4,35.1,126.4,35.1,126.4z M41.1,118.4c0-0.3-0.1-0.5-0.3-0.7
		s-0.4-0.3-0.7-0.3h-2.5v1.8h2.5c0.3,0,0.6-0.1,0.7-0.3C41,118.9,41.1,118.7,41.1,118.4z M37.6,123.8h2.7c0.3,0,0.6-0.1,0.8-0.3
		c0.2-0.2,0.3-0.4,0.3-0.7c0-0.3-0.1-0.5-0.3-0.7s-0.5-0.3-0.8-0.3h-2.7V123.8z"/>
	<path class="st4" d="M51.3,115c0.7,0,1.3,0.1,1.9,0.2c0.6,0.2,1,0.4,1.4,0.7c0.4,0.3,0.7,0.7,0.9,1.2s0.3,1,0.3,1.7
		c0,0.6-0.1,1.2-0.3,1.7s-0.5,0.9-0.9,1.2c-0.4,0.3-0.9,0.6-1.4,0.7c-0.6,0.2-1.2,0.2-1.9,0.2h-2.1v3.3c0,0.1,0,0.2-0.1,0.3
		c-0.1,0.1-0.2,0.1-0.3,0.1h-2.1c-0.1,0-0.2,0-0.3-0.1s-0.1-0.2-0.1-0.3v-10.5c0-0.1,0-0.2,0.1-0.3c0.1-0.1,0.2-0.1,0.3-0.1
		L51.3,115L51.3,115z M49.2,120.1h2c0.5,0,0.8-0.1,1.1-0.3c0.3-0.2,0.4-0.5,0.4-1s-0.1-0.8-0.4-1c-0.3-0.2-0.7-0.3-1.1-0.3h-2V120.1
		z"/>
	<path class="st4" d="M66.6,115c0.1,0,0.2,0,0.3,0.1s0.1,0.2,0.1,0.3v6.5c0,0.7-0.1,1.4-0.4,2c-0.2,0.6-0.6,1.1-1,1.4
		c-0.4,0.4-1,0.7-1.6,0.9c-0.6,0.2-1.3,0.3-2,0.3s-1.4-0.1-2-0.3s-1.1-0.5-1.6-0.9c-0.4-0.4-0.8-0.9-1-1.4c-0.2-0.6-0.4-1.2-0.4-2
		v-6.5c0-0.1,0-0.2,0.1-0.3c0.1-0.1,0.2-0.1,0.3-0.1h2.1c0.1,0,0.2,0,0.3,0.1s0.1,0.2,0.1,0.3v6.4c0,0.7,0.2,1.2,0.5,1.5
		c0.3,0.4,0.8,0.6,1.5,0.6c0.6,0,1.1-0.2,1.5-0.6s0.5-0.9,0.5-1.5v-6.4c0-0.1,0-0.2,0.1-0.3c0.1-0.1,0.2-0.1,0.3-0.1H66.6z"/>
	<path class="st4" d="M74.1,115c0.7,0,1.4,0.1,1.9,0.2c0.6,0.2,1,0.4,1.4,0.7c0.4,0.3,0.7,0.7,0.9,1.2c0.2,0.5,0.3,1,0.3,1.6
		c0,0.8-0.2,1.5-0.5,2s-0.8,0.9-1.4,1.2l2,3.9c0,0.1,0,0.1,0,0.2s0,0.2-0.1,0.3c-0.1,0.1-0.2,0.1-0.3,0.1h-2.2c-0.2,0-0.4,0-0.5-0.1
		s-0.2-0.2-0.2-0.3l-1.8-3.5h-1.5v3.5c0,0.1,0,0.2-0.1,0.3c-0.1,0.1-0.2,0.1-0.3,0.1h-2.1c-0.1,0-0.2,0-0.3-0.1
		c-0.1-0.1-0.1-0.2-0.1-0.3v-10.5c0-0.1,0-0.2,0.1-0.3c0.1-0.1,0.2-0.1,0.3-0.1L74.1,115L74.1,115z M72.2,119.9H74
		c0.5,0,0.8-0.1,1.1-0.3s0.4-0.5,0.4-0.9s-0.1-0.8-0.4-0.9c-0.3-0.2-0.7-0.3-1.1-0.3h-1.8V119.9z"/>
	<path class="st4" d="M85.6,115c0.7,0,1.3,0.1,1.9,0.2c0.6,0.2,1,0.4,1.4,0.7c0.4,0.3,0.7,0.7,0.9,1.2c0.2,0.5,0.3,1,0.3,1.7
		c0,0.6-0.1,1.2-0.3,1.7c-0.2,0.5-0.5,0.9-0.9,1.2c-0.4,0.3-0.9,0.6-1.4,0.7c-0.6,0.2-1.2,0.2-1.9,0.2h-2.1v3.3c0,0.1,0,0.2-0.1,0.3
		c-0.1,0.1-0.2,0.1-0.3,0.1H81c-0.1,0-0.2,0-0.3-0.1c-0.1-0.1-0.1-0.2-0.1-0.3v-10.5c0-0.1,0-0.2,0.1-0.3c0.1-0.1,0.2-0.1,0.3-0.1
		L85.6,115L85.6,115z M83.5,120.1h2c0.5,0,0.8-0.1,1.1-0.3c0.3-0.2,0.4-0.5,0.4-1s-0.1-0.8-0.4-1s-0.7-0.3-1.1-0.3h-2V120.1z"/>
	<path class="st4" d="M99.6,123.8c0.1,0,0.2,0,0.3,0.1c0.1,0.1,0.1,0.2,0.1,0.3v1.7c0,0.1,0,0.2-0.1,0.3c-0.1,0.1-0.2,0.1-0.3,0.1
		h-7.5c-0.1,0-0.2,0-0.3-0.1c-0.1-0.1-0.1-0.2-0.1-0.3v-10.5c0-0.1,0-0.2,0.1-0.3c0.1-0.1,0.2-0.1,0.3-0.1h2.1c0.1,0,0.2,0,0.3,0.1
		c0.1,0.1,0.1,0.2,0.1,0.3v8.3L99.6,123.8L99.6,123.8z"/>
	<path class="st4" d="M109.6,123.8c0.1,0,0.2,0,0.3,0.1c0.1,0.1,0.1,0.2,0.1,0.3v1.7c0,0.1,0,0.2-0.1,0.3c-0.1,0.1-0.2,0.1-0.3,0.1
		h-7.7c-0.1,0-0.2,0-0.3-0.1c-0.1-0.1-0.1-0.2-0.1-0.3v-10.5c0-0.1,0-0.2,0.1-0.3c0.1-0.1,0.2-0.1,0.3-0.1h7.6c0.1,0,0.2,0,0.3,0.1
		c0.1,0.1,0.1,0.2,0.1,0.3v1.7c0,0.1,0,0.2-0.1,0.3c-0.1,0.1-0.2,0.1-0.3,0.1h-5v1.8h4.6c0.1,0,0.2,0,0.3,0.1
		c0.1,0.1,0.1,0.2,0.1,0.3v1.7c0,0.1,0,0.2-0.1,0.3c-0.1,0.1-0.2,0.1-0.3,0.1h-4.6v1.8h5.1V123.8z"/>
</g>
</svg>
