<?xml version="1.0" encoding="UTF-8"?>
<svg viewBox="0 0 60 90" version="1.1" xmlns="http://www.w3.org/2000/svg" xmlns:xlink="http://www.w3.org/1999/xlink">
    <!-- Generator: Sketch 42 (36781) - http://www.bohemiancoding.com/sketch -->
    <title>Artboard</title>
    <desc>Created with Sketch.</desc>
    <defs>
        <linearGradient x1="-8.66384977%" y1="68.944%" x2="102.056103%" y2="33.2576471%" id="linearGradient-1">
            <stop stop-color="#BE1E2D" offset="0%"></stop>
            <stop stop-color="#EC297B" offset="100%"></stop>
        </linearGradient>
        <linearGradient x1="-14.0732394%" y1="44.6009412%" x2="83.3617371%" y2="52.8376471%" id="linearGradient-2">
            <stop stop-color="#262261" offset="0%"></stop>
            <stop stop-color="#652D90" offset="100%"></stop>
        </linearGradient>
        <linearGradient x1="76.7873239%" y1="148.793529%" x2="30.4257042%" y2="-21.7947059%" id="linearGradient-3">
            <stop stop-color="#BE1E2D" offset="0%"></stop>
            <stop stop-color="#EC297B" offset="100%"></stop>
        </linearGradient>
        <linearGradient x1="69.9415493%" y1="84.1152941%" x2="21.2242958%" y2="0.767647059%" id="linearGradient-4">
            <stop stop-color="#262261" offset="0%"></stop>
            <stop stop-color="#652D90" offset="100%"></stop>
        </linearGradient>
    </defs>
    <g id="Page-1" stroke="none" stroke-width="1" fill="none" fill-rule="evenodd">
        <g id="Artboard">
            <g id="logo-wp-studio" transform="translate(2.000000, 3.000000)">
                <g id="Group" transform="translate(7.000000, 0.000000)" fill-rule="nonzero">
                    <polygon id="Shape" fill="url(#linearGradient-1)" points="29.1 34.9 0.7 51.9 14.9 60.4 43.3 43.4 43.3 26.4 29.1 17.9 29.1 17.9"></polygon>
                    <polygon id="Shape" fill="url(#linearGradient-2)" points="14.9 26.4 43.3 9.4 29.1 0.9 0.7 17.9 0.7 34.9 14.9 43.4 14.9 43.4"></polygon>
                    <polygon id="Shape" fill="url(#linearGradient-3)" points="14.9 26.4 29.1 34.9 43.3 26.4 29.1 17.9 29.1 17.9"></polygon>
                    <polygon id="Shape" fill="url(#linearGradient-4)" points="0.7 34.9 14.9 43.4 29.1 34.9 14.9 26.4 14.9 26.4"></polygon>
                </g>
                <g id="Group-31" transform="translate(0.000000, 67.000000)" fill="#ffffff">
                    <path d="M14.7754,9.4659 C15.1804,9.4659 15.5384,9.5209 15.8464,9.6299 C16.1554,9.7389 16.4124,9.8739 16.6184,10.0379 C16.8234,10.2009 16.9794,10.3809 17.0854,10.5779 C17.1914,10.7749 17.2494,10.9609 17.2624,11.1369 C17.2684,11.2079 17.2454,11.2679 17.1934,11.3129 C17.1424,11.3589 17.0844,11.3809 17.0174,11.3809 L16.3824,11.3809 C16.2784,11.3809 16.2024,11.3619 16.1504,11.3219 C16.0984,11.2819 16.0514,11.2299 16.0104,11.1629 C15.9194,11.0119 15.7814,10.8799 15.5964,10.7679 C15.4124,10.6569 15.1384,10.6009 14.7754,10.6009 C14.6184,10.6009 14.4684,10.6169 14.3264,10.6509 C14.1844,10.6849 14.0604,10.7319 13.9554,10.7949 C13.8484,10.8599 13.7644,10.9369 13.7044,11.0279 C13.6444,11.1179 13.6134,11.2209 13.6134,11.3359 C13.6134,11.4749 13.6434,11.5889 13.7004,11.6759 C13.7574,11.7639 13.8544,11.8389 13.9904,11.9039 C14.1274,11.9669 14.3064,12.0259 14.5304,12.0789 C14.7544,12.1339 15.0324,12.1969 15.3654,12.2709 C15.7284,12.3489 16.0414,12.4419 16.3054,12.5469 C16.5684,12.6529 16.7824,12.7799 16.9494,12.9289 C17.1154,13.0759 17.2394,13.2469 17.3214,13.4409 C17.4024,13.6349 17.4434,13.8559 17.4434,14.1039 C17.4434,14.3749 17.3824,14.6279 17.2624,14.8609 C17.1414,15.0939 16.9684,15.2929 16.7444,15.4599 C16.5204,15.6269 16.2454,15.7579 15.9194,15.8549 C15.5914,15.9509 15.2264,15.9999 14.8214,15.9999 C14.4824,15.9999 14.1584,15.9589 13.8494,15.8769 C13.5414,15.7959 13.2684,15.6789 13.0294,15.5239 C12.7894,15.3689 12.5974,15.1839 12.4524,14.9659 C12.3074,14.7479 12.2264,14.5059 12.2074,14.2399 C12.2014,14.1669 12.2244,14.1079 12.2754,14.0629 C12.3264,14.0169 12.3854,13.9939 12.4524,13.9939 L13.0874,13.9939 C13.1914,13.9939 13.2694,14.0129 13.3234,14.0489 C13.3784,14.0849 13.4234,14.1399 13.4604,14.2129 C13.5024,14.2909 13.5534,14.3689 13.6134,14.4479 C13.6744,14.5269 13.7554,14.5969 13.8594,14.6569 C13.9614,14.7179 14.0904,14.7679 14.2454,14.8079 C14.3994,14.8459 14.5914,14.8649 14.8214,14.8649 C15.0024,14.8649 15.1774,14.8519 15.3474,14.8239 C15.5174,14.7979 15.6654,14.7529 15.7914,14.6889 C15.9194,14.6249 16.0214,14.5469 16.1004,14.4519 C16.1794,14.3589 16.2184,14.2429 16.2184,14.1039 C16.2184,13.9699 16.1764,13.8619 16.0914,13.7779 C16.0074,13.6929 15.8784,13.6189 15.7064,13.5589 C15.5334,13.4979 15.3204,13.4409 15.0664,13.3869 C14.8124,13.3319 14.5184,13.2629 14.1864,13.1779 C13.8834,13.1049 13.6184,13.0189 13.3914,12.9199 C13.1644,12.8199 12.9774,12.6959 12.8294,12.5509 C12.6814,12.4059 12.5704,12.2359 12.4984,12.0389 C12.4244,11.8429 12.3884,11.6089 12.3884,11.3359 C12.3884,11.0639 12.4494,10.8129 12.5704,10.5829 C12.6924,10.3529 12.8574,10.1559 13.0694,9.9919 C13.2814,9.8289 13.5334,9.7009 13.8274,9.6069 C14.1204,9.5129 14.4374,9.4659 14.7754,9.4659" id="Fill-1"></path>
                    <path d="M22.6431,9.5567 C22.7091,9.5567 22.7671,9.5807 22.8161,9.6297 C22.8641,9.6787 22.8881,9.7357 22.8881,9.8017 L22.8881,10.4467 C22.8881,10.5127 22.8641,10.5707 22.8161,10.6187 C22.7671,10.6677 22.7091,10.6917 22.6431,10.6917 L21.0101,10.6917 L21.0101,15.6647 C21.0101,15.7307 20.9861,15.7877 20.9371,15.8367 C20.8881,15.8847 20.8311,15.9097 20.7651,15.9097 L20.0301,15.9097 C19.9631,15.9097 19.9061,15.8847 19.8571,15.8367 C19.8091,15.7877 19.7851,15.7307 19.7851,15.6647 L19.7851,10.6917 L18.1511,10.6917 C18.0841,10.6917 18.0271,10.6677 17.9781,10.6187 C17.9311,10.5707 17.9061,10.5127 17.9061,10.4467 L17.9061,9.8017 C17.9061,9.7357 17.9311,9.6787 17.9781,9.6297 C18.0271,9.5807 18.0841,9.5567 18.1511,9.5567 L22.6431,9.5567 Z" id="Fill-3"></path>
                    <path d="M28.7051,9.5567 C28.7721,9.5567 28.8301,9.5807 28.8781,9.6297 C28.9271,9.6787 28.9511,9.7357 28.9511,9.8017 L28.9511,13.5227 C28.9511,13.8977 28.8961,14.2367 28.7871,14.5387 C28.6781,14.8407 28.5161,15.1017 28.2971,15.3197 C28.0801,15.5367 27.8071,15.7047 27.4801,15.8237 C27.1541,15.9417 26.7761,15.9997 26.3461,15.9997 C25.9111,15.9997 25.5321,15.9417 25.2071,15.8237 C24.8841,15.7047 24.6131,15.5367 24.3951,15.3197 C24.1771,15.1017 24.0151,14.8407 23.9101,14.5387 C23.8041,14.2367 23.7511,13.8977 23.7511,13.5227 L23.7511,9.8017 C23.7511,9.7357 23.7751,9.6787 23.8231,9.6297 C23.8721,9.5807 23.9301,9.5567 23.9961,9.5567 L24.7311,9.5567 C24.7981,9.5567 24.8551,9.5807 24.9031,9.6297 C24.9521,9.6787 24.9761,9.7357 24.9761,9.8017 L24.9761,13.4767 C24.9761,13.7257 25.0091,13.9367 25.0761,14.1127 C25.1421,14.2877 25.2361,14.4317 25.3571,14.5427 C25.4781,14.6557 25.6231,14.7377 25.7931,14.7887 C25.9621,14.8397 26.1461,14.8657 26.3461,14.8657 C26.5461,14.8657 26.7321,14.8397 26.9051,14.7887 C27.0771,14.7377 27.2231,14.6557 27.3451,14.5427 C27.4661,14.4317 27.5601,14.2877 27.6311,14.1127 C27.7001,13.9367 27.7351,13.7257 27.7351,13.4767 L27.7351,9.8017 C27.7351,9.7357 27.7591,9.6787 27.8071,9.6297 C27.8551,9.5807 27.9131,9.5567 27.9791,9.5567 L28.7051,9.5567 Z" id="Fill-5"></path>
                    <path d="M34.2949,12.0626 C34.2829,11.8686 34.2449,11.6876 34.1819,11.5216 C34.1189,11.3556 34.0239,11.2096 33.8999,11.0856 C33.7759,10.9616 33.6209,10.8656 33.4339,10.7946 C33.2449,10.7256 33.0219,10.6916 32.7619,10.6916 L31.5459,10.6916 L31.5459,14.7756 L32.8069,14.7756 C33.0549,14.7756 33.2699,14.7406 33.4509,14.6706 C33.6329,14.6016 33.7839,14.5056 33.9049,14.3846 C34.0259,14.2636 34.1189,14.1186 34.1819,13.9496 C34.2449,13.7806 34.2829,13.5986 34.2949,13.4056 C34.3189,12.9576 34.3189,12.5096 34.2949,12.0626 L34.2949,12.0626 Z M32.8069,9.5566 C33.2539,9.5566 33.6439,9.6166 33.9739,9.7346 C34.3029,9.8516 34.5779,10.0196 34.7989,10.2386 C35.0209,10.4556 35.1899,10.7176 35.3079,11.0276 C35.4259,11.3356 35.4969,11.6796 35.5199,12.0626 C35.5439,12.5096 35.5439,12.9576 35.5199,13.4056 C35.4969,13.7866 35.4259,14.1306 35.3079,14.4386 C35.1899,14.7486 35.0219,15.0106 34.8039,15.2296 C34.5859,15.4466 34.3149,15.6146 33.9909,15.7316 C33.6679,15.8496 33.2879,15.9096 32.8529,15.9096 L30.5659,15.9096 C30.4979,15.9096 30.4409,15.8846 30.3939,15.8366 C30.3449,15.7886 30.3199,15.7306 30.3199,15.6656 L30.3199,9.8016 C30.3199,9.7356 30.3449,9.6786 30.3939,9.6296 C30.4409,9.5816 30.4979,9.5566 30.5659,9.5566 L32.8069,9.5566 Z" id="Fill-7"></path>
                    <path d="M36.9541,15.9093 C36.8871,15.9093 36.8301,15.8853 36.7821,15.8373 C36.7331,15.7883 36.7091,15.7303 36.7091,15.6653 L36.7091,9.8023 C36.7091,9.7353 36.7331,9.6793 36.7821,9.6303 C36.8301,9.5813 36.8871,9.5563 36.9541,9.5563 L37.6891,9.5563 C37.7561,9.5563 37.8121,9.5813 37.8611,9.6303 C37.9101,9.6793 37.9341,9.7353 37.9341,9.8023 L37.9341,15.6653 C37.9341,15.7303 37.9101,15.7883 37.8611,15.8373 C37.8121,15.8853 37.7561,15.9093 37.6891,15.9093 L36.9541,15.9093 Z" id="Fill-9"></path>
                    <path d="M43.2432,11.9708 C43.2202,11.5348 43.0782,11.1978 42.8202,10.9588 C42.5632,10.7198 42.2232,10.6008 41.8012,10.6008 C41.3772,10.6008 41.0362,10.7198 40.7792,10.9588 C40.5222,11.1978 40.3822,11.5348 40.3572,11.9708 C40.3462,12.1998 40.3392,12.4568 40.3392,12.7378 C40.3392,13.0188 40.3462,13.2748 40.3572,13.5038 C40.3822,13.9398 40.5222,14.2768 40.7792,14.5118 C41.0362,14.7478 41.3772,14.8658 41.8012,14.8658 C42.2232,14.8658 42.5632,14.7478 42.8202,14.5118 C43.0782,14.2768 43.2202,13.9398 43.2432,13.5038 C43.2562,13.2748 43.2612,13.0188 43.2612,12.7378 C43.2612,12.4568 43.2562,12.1998 43.2432,11.9708 M39.1332,11.9258 C39.1502,11.5868 39.2152,11.2678 39.3272,10.9678 C39.4392,10.6688 39.6042,10.4088 39.8222,10.1878 C40.0402,9.9668 40.3112,9.7918 40.6392,9.6608 C40.9662,9.5318 41.3522,9.4658 41.8012,9.4658 C42.2422,9.4658 42.6262,9.5298 42.9522,9.6578 C43.2792,9.7838 43.5522,9.9588 43.7692,10.1838 C43.9872,10.4078 44.1542,10.6678 44.2682,10.9638 C44.3842,11.2598 44.4502,11.5808 44.4692,11.9258 C44.4742,12.0408 44.4782,12.1668 44.4822,12.3068 C44.4852,12.4468 44.4862,12.5888 44.4862,12.7378 C44.4862,12.8858 44.4852,13.0298 44.4822,13.1688 C44.4782,13.3088 44.4742,13.4358 44.4692,13.5498 C44.4502,13.8898 44.3852,14.2078 44.2722,14.5068 C44.1612,14.8078 43.9962,15.0678 43.7782,15.2868 C43.5602,15.5088 43.2862,15.6828 42.9572,15.8098 C42.6282,15.9368 42.2422,15.9998 41.8012,15.9998 C41.3522,15.9998 40.9662,15.9368 40.6392,15.8098 C40.3112,15.6828 40.0402,15.5088 39.8222,15.2868 C39.6042,15.0678 39.4392,14.8078 39.3272,14.5068 C39.2152,14.2078 39.1502,13.8898 39.1332,13.5498 C39.1272,13.4358 39.1222,13.3088 39.1192,13.1688 C39.1162,13.0298 39.1142,12.8858 39.1142,12.7378 C39.1142,12.5888 39.1162,12.4468 39.1192,12.3068 C39.1222,12.1668 39.1272,12.0408 39.1332,11.9258" id="Fill-11"></path>
                    <path d="M6.9375,0.962 L5.7315,0.962 C5.6705,0.962 5.6125,0.982 5.5575,1.018 C5.5025,1.055 5.4655,1.119 5.4475,1.211 L4.8585,4.321 L4.3145,2.656 C4.3035,2.612 4.2755,2.559 4.2315,2.49 C4.1895,2.423 4.1125,2.39 4.0025,2.39 L3.1375,2.39 C3.0275,2.39 2.9505,2.423 2.9075,2.49 C2.8645,2.559 2.8365,2.612 2.8255,2.656 L2.2815,4.321 L1.6925,1.211 C1.6745,1.119 1.6375,1.055 1.5825,1.018 C1.5275,0.982 1.4695,0.962 1.4085,0.962 L0.2025,0.962 C0.1465,0.962 0.0995,0.983 0.0595,1.023 C0.0195,1.063 0.0005,1.109 0.0005,1.165 C0.0005,1.184 0.0025,1.208 0.0085,1.239 L1.1955,7.055 C1.2085,7.141 1.2565,7.221 1.3425,7.293 C1.4285,7.367 1.5335,7.404 1.6565,7.404 L2.4195,7.404 C2.5425,7.404 2.6425,7.367 2.7195,7.293 C2.7955,7.221 2.8485,7.141 2.8805,7.055 L3.5705,4.976 L4.2595,7.055 C4.2905,7.141 4.3445,7.221 4.4205,7.293 C4.4985,7.367 4.5975,7.404 4.7205,7.404 L5.4845,7.404 C5.6065,7.404 5.7115,7.367 5.7975,7.293 C5.8825,7.221 5.9315,7.141 5.9445,7.055 L7.1315,1.239 C7.1375,1.208 7.1405,1.184 7.1405,1.165 C7.1405,1.109 7.1205,1.063 7.0815,1.023 C7.0405,0.983 6.9935,0.962 6.9375,0.962" id="Fill-13"></path>
                    <path d="M12.6524,5.9317 L9.7454,5.9317 L9.7454,4.9017 L12.3764,4.9017 C12.4444,4.9017 12.5024,4.8757 12.5514,4.8277 C12.6004,4.7787 12.6244,4.7207 12.6244,4.6537 L12.6244,3.6767 C12.6244,3.6097 12.6004,3.5517 12.5514,3.5027 C12.5024,3.4527 12.4444,3.4287 12.3764,3.4287 L9.7454,3.4287 L9.7454,2.4347 L12.5794,2.4347 C12.6464,2.4347 12.7044,2.4107 12.7544,2.3617 C12.8024,2.3127 12.8274,2.2537 12.8274,2.1867 L12.8274,1.2107 C12.8274,1.1437 12.8024,1.0857 12.7544,1.0357 C12.7044,0.9877 12.6464,0.9617 12.5794,0.9617 L8.2904,0.9617 C8.2234,0.9617 8.1654,0.9877 8.1154,1.0357 C8.0674,1.0857 8.0424,1.1437 8.0424,1.2107 L8.0424,7.1567 C8.0424,7.2237 8.0674,7.2817 8.1154,7.3307 C8.1654,7.3787 8.2234,7.4047 8.2904,7.4047 L12.6524,7.4047 C12.7204,7.4047 12.7784,7.3787 12.8274,7.3307 C12.8764,7.2817 12.9014,7.2237 12.9014,7.1567 L12.9014,6.1797 C12.9014,6.1127 12.8764,6.0547 12.8274,6.0057 C12.7784,5.9557 12.7204,5.9317 12.6524,5.9317" id="Fill-15"></path>
                    <path d="M17.6216,5.8175 C17.5106,5.9235 17.3636,5.9785 17.1796,5.9785 L15.6626,5.9785 L15.6626,4.8545 L17.1796,4.8545 C17.3636,4.8545 17.5106,4.9095 17.6216,5.0155 C17.7326,5.1235 17.7876,5.2565 17.7876,5.4175 C17.7876,5.5765 17.7326,5.7095 17.6216,5.8175 L17.6216,5.8175 Z M15.6626,2.3895 L17.0876,2.3895 C17.2716,2.3895 17.4126,2.4365 17.5066,2.5315 C17.6016,2.6265 17.6496,2.7545 17.6496,2.9145 C17.6496,3.0735 17.6016,3.2005 17.5066,3.2955 C17.4126,3.3905 17.2716,3.4375 17.0876,3.4375 L15.6626,3.4375 L15.6626,2.3895 Z M18.8456,4.0455 C18.8826,4.0145 18.9296,3.9705 18.9886,3.9125 C19.0466,3.8535 19.1036,3.7765 19.1586,3.6815 C19.2136,3.5875 19.2606,3.4735 19.3016,3.3415 C19.3406,3.2095 19.3606,3.0545 19.3606,2.8765 C19.3606,2.6505 19.3246,2.4215 19.2506,2.1905 C19.1766,1.9615 19.0556,1.7555 18.8876,1.5755 C18.7186,1.3935 18.4936,1.2465 18.2106,1.1325 C17.9286,1.0195 17.5816,0.9625 17.1706,0.9625 L14.2076,0.9625 C14.1406,0.9625 14.0816,0.9875 14.0326,1.0365 C13.9846,1.0865 13.9596,1.1435 13.9596,1.2115 L13.9596,7.1565 C13.9596,7.2235 13.9846,7.2815 14.0326,7.3315 C14.0816,7.3795 14.1406,7.4045 14.2076,7.4045 L17.3636,7.4045 C17.7566,7.4045 18.0876,7.3475 18.3576,7.2345 C18.6276,7.1205 18.8466,6.9705 19.0156,6.7825 C19.1846,6.5955 19.3056,6.3815 19.3796,6.1435 C19.4526,5.9045 19.4906,5.6595 19.4906,5.4075 C19.4906,5.1005 19.4426,4.8385 19.3466,4.6205 C19.2516,4.4035 19.0846,4.2115 18.8456,4.0455 L18.8456,4.0455 Z" id="Fill-17"></path>
                    <path d="M23.9844,3.673 C23.8164,3.786 23.6024,3.843 23.3444,3.843 L22.2134,3.843 L22.2134,2.39 L23.3444,2.39 C23.6024,2.39 23.8164,2.445 23.9844,2.56 C24.1534,2.673 24.2374,2.859 24.2374,3.115 C24.2374,3.373 24.1534,3.56 23.9844,3.673 M25.2504,1.501 C25.0284,1.32 24.7614,1.185 24.4494,1.096 C24.1364,1.007 23.7834,0.962 23.3914,0.962 L20.7584,0.962 C20.6924,0.962 20.6334,0.987 20.5844,1.036 C20.5354,1.086 20.5104,1.144 20.5104,1.211 L20.5104,7.156 C20.5104,7.224 20.5354,7.281 20.5844,7.331 C20.6334,7.379 20.6924,7.404 20.7584,7.404 L21.9644,7.404 C22.0314,7.404 22.0894,7.379 22.1394,7.331 C22.1894,7.281 22.2134,7.224 22.2134,7.156 L22.2134,5.278 L23.3914,5.278 C23.7834,5.278 24.1364,5.233 24.4494,5.141 C24.7614,5.048 25.0284,4.914 25.2504,4.735 C25.4704,4.558 25.6414,4.334 25.7604,4.065 C25.8804,3.793 25.9404,3.479 25.9404,3.115 C25.9404,2.76 25.8804,2.447 25.7604,2.178 C25.6414,1.907 25.4704,1.682 25.2504,1.501" id="Fill-19"></path>
                    <path d="M32.1045,0.962 L30.8995,0.962 C30.8325,0.962 30.7735,0.987 30.7245,1.036 C30.6755,1.086 30.6515,1.144 30.6515,1.211 L30.6515,4.846 C30.6515,5.214 30.5605,5.503 30.3795,5.711 C30.1985,5.92 29.9235,6.024 29.5565,6.024 C29.1875,6.024 28.9135,5.92 28.7325,5.711 C28.5515,5.503 28.4605,5.214 28.4605,4.846 L28.4605,1.211 C28.4605,1.144 28.4365,1.086 28.3875,1.036 C28.3375,0.987 28.2795,0.962 28.2125,0.962 L27.0065,0.962 C26.9395,0.962 26.8815,0.987 26.8325,1.036 C26.7825,1.086 26.7585,1.144 26.7585,1.211 L26.7585,4.882 C26.7585,5.307 26.8265,5.681 26.9615,6.006 C27.0955,6.331 27.2865,6.604 27.5315,6.824 C27.7765,7.045 28.0715,7.212 28.4155,7.326 C28.7585,7.44 29.1385,7.496 29.5565,7.496 C29.9675,7.496 30.3435,7.44 30.6875,7.326 C31.0315,7.212 31.3275,7.045 31.5765,6.824 C31.8245,6.604 32.0155,6.331 32.1515,6.006 C32.2855,5.681 32.3535,5.307 32.3535,4.882 L32.3535,1.211 C32.3535,1.144 32.3295,1.086 32.2795,1.036 C32.2305,0.987 32.1715,0.962 32.1045,0.962" id="Fill-21"></path>
                    <path d="M36.96,3.6036 C36.791,3.7016 36.578,3.7506 36.32,3.7506 L35.28,3.7506 L35.28,2.3896 L36.32,2.3896 C36.578,2.3896 36.791,2.4376 36.96,2.5366 C37.129,2.6336 37.213,2.8126 37.213,3.0706 C37.213,3.3286 37.129,3.5056 36.96,3.6036 L36.96,3.6036 Z M37.82,4.9106 C38.17,4.7506 38.439,4.5196 38.63,4.2146 C38.82,3.9126 38.915,3.5296 38.915,3.0706 C38.915,2.7136 38.856,2.4036 38.736,2.1366 C38.615,1.8696 38.444,1.6506 38.221,1.4786 C37.996,1.3066 37.726,1.1776 37.406,1.0916 C37.087,1.0056 36.726,0.9616 36.32,0.9616 L33.826,0.9616 C33.759,0.9616 33.7,0.9876 33.651,1.0366 C33.603,1.0856 33.578,1.1436 33.578,1.2106 L33.578,7.1566 C33.578,7.2236 33.603,7.2816 33.651,7.3316 C33.7,7.3786 33.759,7.4046 33.826,7.4046 L35.031,7.4046 C35.099,7.4046 35.157,7.3786 35.207,7.3316 C35.256,7.2816 35.28,7.2236 35.28,7.1566 L35.28,5.1866 L36.127,5.1866 L37.148,7.1566 C37.179,7.2096 37.221,7.2656 37.272,7.3216 C37.325,7.3756 37.412,7.4046 37.534,7.4046 L38.787,7.4046 C38.842,7.4046 38.89,7.3846 38.929,7.3436 C38.969,7.3046 38.989,7.2566 38.989,7.2016 C38.989,7.1706 38.98,7.1376 38.962,7.1006 L37.82,4.9106 Z" id="Fill-23"></path>
                    <path d="M43.4463,3.673 C43.2783,3.786 43.0653,3.843 42.8073,3.843 L41.6753,3.843 L41.6753,2.39 L42.8073,2.39 C43.0653,2.39 43.2783,2.445 43.4463,2.56 C43.6153,2.673 43.6993,2.859 43.6993,3.115 C43.6993,3.373 43.6153,3.56 43.4463,3.673 M44.7133,1.501 C44.4913,1.32 44.2243,1.185 43.9123,1.096 C43.5983,1.007 43.2463,0.962 42.8533,0.962 L40.2213,0.962 C40.1543,0.962 40.0953,0.987 40.0473,1.036 C39.9983,1.086 39.9733,1.144 39.9733,1.211 L39.9733,7.156 C39.9733,7.224 39.9983,7.281 40.0473,7.331 C40.0953,7.379 40.1543,7.404 40.2213,7.404 L41.4263,7.404 C41.4943,7.404 41.5523,7.379 41.6013,7.331 C41.6513,7.281 41.6753,7.224 41.6753,7.156 L41.6753,5.278 L42.8533,5.278 C43.2463,5.278 43.5983,5.233 43.9123,5.141 C44.2243,5.048 44.4913,4.914 44.7133,4.735 C44.9323,4.558 45.1033,4.334 45.2233,4.065 C45.3423,3.793 45.4023,3.479 45.4023,3.115 C45.4023,2.76 45.3423,2.447 45.2233,2.178 C45.1033,1.907 44.9323,1.682 44.7133,1.501" id="Fill-25"></path>
                    <path d="M50.7949,5.9317 L47.9879,5.9317 L47.9879,1.2107 C47.9879,1.1437 47.9639,1.0857 47.9139,1.0357 C47.8639,0.9877 47.8069,0.9617 47.7389,0.9617 L46.5339,0.9617 C46.4669,0.9617 46.4079,0.9877 46.3579,1.0357 C46.3109,1.0857 46.2859,1.1437 46.2859,1.2107 L46.2859,7.1567 C46.2859,7.2237 46.3109,7.2817 46.3579,7.3307 C46.4079,7.3787 46.4669,7.4047 46.5339,7.4047 L50.7949,7.4047 C50.8609,7.4047 50.9199,7.3787 50.9699,7.3307 C51.0189,7.2817 51.0429,7.2237 51.0429,7.1567 L51.0429,6.1797 C51.0429,6.1127 51.0189,6.0547 50.9699,6.0057 C50.9199,5.9557 50.8609,5.9317 50.7949,5.9317" id="Fill-27"></path>
                    <path d="M56.4434,5.9317 L53.5374,5.9317 L53.5374,4.9017 L56.1684,4.9017 C56.2354,4.9017 56.2944,4.8757 56.3424,4.8277 C56.3924,4.7787 56.4164,4.7207 56.4164,4.6537 L56.4164,3.6767 C56.4164,3.6097 56.3924,3.5517 56.3424,3.5027 C56.2944,3.4527 56.2354,3.4287 56.1684,3.4287 L53.5374,3.4287 L53.5374,2.4347 L56.3714,2.4347 C56.4374,2.4347 56.4964,2.4107 56.5464,2.3617 C56.5934,2.3127 56.6194,2.2537 56.6194,2.1867 L56.6194,1.2107 C56.6194,1.1437 56.5934,1.0857 56.5464,1.0357 C56.4964,0.9877 56.4374,0.9617 56.3714,0.9617 L52.0824,0.9617 C52.0144,0.9617 51.9574,0.9877 51.9074,1.0357 C51.8584,1.0857 51.8344,1.1437 51.8344,1.2107 L51.8344,7.1567 C51.8344,7.2237 51.8584,7.2817 51.9074,7.3307 C51.9574,7.3787 52.0144,7.4047 52.0824,7.4047 L56.4434,7.4047 C56.5114,7.4047 56.5704,7.3787 56.6194,7.3307 C56.6684,7.2817 56.6924,7.2237 56.6924,7.1567 L56.6924,6.1797 C56.6924,6.1127 56.6684,6.0547 56.6194,6.0057 C56.5704,5.9557 56.5114,5.9317 56.4434,5.9317" id="Fill-29"></path>
                </g>
            </g>
        </g>
    </g>
</svg>